<?xml version="1.0" encoding="UTF-8" standalone="no"?>
<!DOCTYPE svg PUBLIC "-//W3C//DTD SVG 1.1//EN" "http://www.w3.org/Graphics/SVG/1.1/DTD/svg11.dtd">
<svg width="100%" height="100%" viewBox="0 0 74 60" version="1.1" xmlns="http://www.w3.org/2000/svg" xmlns:xlink="http://www.w3.org/1999/xlink" xml:space="preserve" xmlns:serif="http://www.serif.com/" style="fill-rule:evenodd;clip-rule:evenodd;stroke-linejoin:round;stroke-miterlimit:1.41421;">
    <g transform="matrix(9.4917,0,0,9.49143,0.299181,-30.5728)">
        <g transform="matrix(0.232174,0,0,0.232174,0.000246519,3.04161)">
            <path d="M10.061,11.968C9.287,12.198 8.756,12.436 8.112,12.59C7.834,12.656 7.463,12.363 7.364,12.079C7.165,11.494 7.124,10.812 6.894,10.29C6.537,9.94 5.278,10.376 5.274,10.86C5.436,11.423 5.844,12.095 6.075,12.761C6.141,12.957 6.131,13.152 6.088,13.35C6,13.76 5.751,14.093 5.377,14.275C4.685,14.616 3.978,14.834 3.225,15.034C2.207,15.297 1.249,15.568 0.259,15.883C0.19,15.906 0.133,15.968 0.116,16.039C-0.034,16.559 0.043,16.971 0.295,17.441C0.469,17.758 0.772,18.247 1.093,18.136C2.319,17.597 3.452,16.989 4.688,16.452C5.291,16.196 5.881,15.836 6.573,15.937C6.945,15.992 7.327,16.196 7.465,16.559C7.709,17.185 7.983,18.426 7.992,18.444C8.208,18.912 9.708,18.377 9.649,17.969C9.649,17.954 9.055,16.727 8.898,16.317C8.76,15.969 9.076,15.5 9.42,15.4C11.993,14.657 14.622,14.539 17.266,14.75C17.79,14.79 18.298,14.819 18.834,14.918C19.385,15.024 19.894,15.123 20.448,15.224C21.174,15.361 21.679,15.589 22.413,15.748C22.579,15.794 22.616,15.644 22.629,15.572L22.657,15.491C23.081,12.666 28.049,14.535 26.469,17.034C26.469,17.034 26.44,17.097 26.434,17.12C26.391,17.204 26.45,17.252 26.45,17.252C26.943,17.594 27.43,17.884 28.004,18.244C28.043,18.266 28.111,18.32 28.168,18.282C28.422,18.107 28.51,17.826 28.721,17.626C28.954,17.403 29.206,17.224 29.489,17.07C30.714,16.422 31.944,15.945 33.219,15.445C33.232,15.443 33.239,15.366 33.219,15.349C23.23,8.724 14.043,10.818 10.129,11.943L10.061,11.968Z" style="fill:white;fill-rule:nonzero;"/>
        </g>
        <g transform="matrix(0.232174,0,0,0.232174,0.000246519,3.04161)">
            <path d="M10.136,2.576C9.364,2.805 8.829,3.045 8.184,3.198C7.905,3.267 7.536,2.969 7.441,2.689C7.242,2.103 7.195,1.422 6.967,0.903C6.61,0.546 5.35,0.987 5.346,1.472C5.51,2.032 5.918,2.706 6.15,3.371C6.216,3.564 6.207,3.759 6.165,3.958C6.077,4.371 5.829,4.705 5.454,4.882C4.761,5.223 4.053,5.443 3.299,5.638C2.287,5.909 1.327,6.174 0.337,6.487C0.266,6.514 0.209,6.579 0.19,6.645C0.04,7.17 0.124,7.578 0.374,8.046C0.543,8.367 0.846,8.856 1.168,8.743C2.398,8.204 3.526,7.598 4.766,7.065C5.365,6.801 5.961,6.444 6.647,6.546C7.019,6.6 7.403,6.804 7.543,7.17C7.78,7.795 8.058,9.036 8.071,9.053C8.288,9.522 9.782,8.987 9.728,8.573C9.728,8.559 9.132,7.337 8.97,6.926C8.836,6.579 9.15,6.108 9.497,6.006C12.067,5.265 14.7,5.148 17.345,5.36C17.868,5.399 18.374,5.427 18.907,5.532C19.465,5.633 19.969,5.73 20.522,5.833C21.249,5.968 21.751,6.195 22.492,6.357C22.652,6.404 22.69,6.249 22.706,6.185L22.732,6.103C23.153,3.272 28.123,5.146 26.544,7.641C26.544,7.641 26.518,7.71 26.508,7.723C26.465,7.809 26.527,7.863 26.527,7.863C27.019,8.204 27.508,8.49 28.079,8.85C28.12,8.876 28.187,8.927 28.243,8.886C28.499,8.715 28.587,8.438 28.797,8.238C29.031,8.014 29.28,7.832 29.563,7.68C30.792,7.032 32.022,6.554 33.293,6.057C33.309,6.048 33.311,5.968 33.293,5.954C23.303,-0.665 14.118,1.427 10.204,2.551L10.136,2.576Z" style="fill:white;fill-rule:nonzero;"/>
        </g>
        <g transform="matrix(0.232174,0,0,0.232174,0.000246519,3.04161)">
            <path d="M10.022,21.34C9.246,21.573 8.717,21.811 8.074,21.962C7.793,22.027 7.424,21.738 7.327,21.453C7.125,20.866 7.081,20.185 6.855,19.664C6.496,19.312 5.237,19.75 5.232,20.236C5.395,20.794 5.805,21.466 6.036,22.137C6.104,22.327 6.092,22.526 6.049,22.718C5.961,23.136 5.715,23.466 5.337,23.651C4.644,23.989 3.94,24.21 3.186,24.407C2.168,24.67 1.215,24.937 0.223,25.256C0.151,25.279 0.094,25.342 0.073,25.411C-0.073,25.933 0.006,26.34 0.258,26.81C0.432,27.133 0.731,27.62 1.056,27.507C2.28,26.97 3.413,26.36 4.651,25.825C5.25,25.565 5.844,25.21 6.537,25.308C6.904,25.363 7.286,25.57 7.428,25.938C7.667,26.559 7.946,27.799 7.955,27.819C8.168,28.287 9.666,27.749 9.613,27.339C9.61,27.327 9.016,26.103 8.858,25.692C8.72,25.343 9.036,24.872 9.381,24.772C11.951,24.028 14.585,23.91 17.228,24.122C17.754,24.164 18.257,24.191 18.793,24.29C19.348,24.397 19.852,24.491 20.407,24.598C21.137,24.733 21.639,24.963 22.376,25.119C22.54,25.167 22.574,25.017 22.588,24.947L22.618,24.865C23.041,22.041 28.004,23.908 26.429,26.407C26.429,26.407 26.402,26.475 26.394,26.493C26.35,26.575 26.411,26.623 26.411,26.623C26.905,26.97 27.394,27.256 27.965,27.618C28.004,27.64 28.073,27.691 28.127,27.655C28.384,27.481 28.471,27.202 28.681,27C28.916,26.779 29.165,26.595 29.45,26.444C30.673,25.795 31.907,25.318 33.18,24.818C33.193,24.814 33.2,24.734 33.18,24.721C23.193,18.097 14.004,20.194 10.086,21.32L10.022,21.34Z" style="fill:white;fill-rule:nonzero;"/>
        </g>
    </g>
</svg>
